<svg width="76" height="75" viewBox="0 0 76 75" fill="none" xmlns="http://www.w3.org/2000/svg">
<mask id="mask0_2_483" style="mask-type:luminance" maskUnits="userSpaceOnUse" x="7" y="0" width="62" height="75">
<path d="M68.0969 34.6079L47.9083 54.8037L68.0969 74.9994H45.0274L24.8316 54.8037L45.0274 34.6079H68.0969ZM45.0274 0L7.53125 37.4961L19.0696 49.0345L68.0969 0H45.0274Z" fill="white"/>
</mask>
<g mask="url(#mask0_2_483)">
<path d="M24.8359 54.8051L36.3671 66.3435L68.094 34.6094H45.0245L24.8359 54.8051Z" fill="#39CEFD"/>
</g>
<mask id="mask1_2_483" style="mask-type:luminance" maskUnits="userSpaceOnUse" x="7" y="0" width="62" height="75">
<path d="M68.0969 34.6079L47.9083 54.8037L68.0969 74.9994H45.0274L24.8316 54.8037L45.0274 34.6079H68.0969ZM45.0274 0L7.53125 37.4961L19.0696 49.0345L68.0969 0H45.0274Z" fill="white"/>
</mask>
<g mask="url(#mask1_2_483)">
<path d="M45.0274 0H68.0969L19.0696 49.0345L7.53125 37.4961L45.0274 0Z" fill="#39CEFD"/>
</g>
<mask id="mask2_2_483" style="mask-type:luminance" maskUnits="userSpaceOnUse" x="7" y="0" width="62" height="75">
<path d="M68.0969 34.6079L47.9083 54.8037L68.0969 74.9994H45.0274L24.8316 54.8037L45.0274 34.6079H68.0969ZM45.0274 0L7.53125 37.4961L19.0696 49.0345L68.0969 0H45.0274Z" fill="white"/>
</mask>
<g mask="url(#mask2_2_483)">
<path d="M36.3672 66.3431L45.0246 74.9932H68.0941L47.9056 54.8047L36.3672 66.3431Z" fill="#03569B"/>
</g>
<mask id="mask3_2_483" style="mask-type:luminance" maskUnits="userSpaceOnUse" x="7" y="0" width="62" height="75">
<path d="M68.0969 34.6079L47.9083 54.8037L68.0969 74.9994H45.0274L24.8316 54.8037L45.0274 34.6079H68.0969ZM45.0274 0L7.53125 37.4961L19.0696 49.0345L68.0969 0H45.0274Z" fill="white"/>
</mask>
<g mask="url(#mask3_2_483)">
<path d="M53.4798 60.415L47.9056 54.8047L36.3672 66.3431L53.4798 60.415Z" fill="url(#paint0_linear_2_483)"/>
</g>
<mask id="mask4_2_483" style="mask-type:luminance" maskUnits="userSpaceOnUse" x="7" y="0" width="62" height="75">
<path d="M68.0969 34.6079L47.9083 54.8037L68.0969 74.9994H45.0274L24.8316 54.8037L45.0274 34.6079H68.0969ZM45.0274 0L7.53125 37.4961L19.0696 49.0345L68.0969 0H45.0274Z" fill="white"/>
</mask>
<g mask="url(#mask4_2_483)">
<path d="M24.8359 54.8005L36.3746 43.2617L47.914 54.8005L36.3746 66.3392L24.8359 54.8005Z" fill="#16B9FD"/>
</g>
<path d="M68.0969 34.6079L47.9083 54.8037L68.0969 74.9994H45.0274L24.8316 54.8037L45.0274 34.6079H68.0969ZM45.0274 0L7.53125 37.4961L19.0696 49.0345L68.0969 0H45.0274Z" fill="url(#paint1_radial_2_483)"/>
<defs>
<linearGradient id="paint0_linear_2_483" x1="39.7345" y1="68.5698" x2="48.328" y2="59.9763" gradientUnits="userSpaceOnUse">
<stop stop-color="#1A237E" stop-opacity="0.4"/>
<stop offset="1" stop-color="#1A237E" stop-opacity="0"/>
</linearGradient>
<radialGradient id="paint1_radial_2_483" cx="0" cy="0" r="1" gradientUnits="userSpaceOnUse" gradientTransform="translate(9.23274 5.11174) scale(91.7526 91.7526)">
<stop stop-color="white" stop-opacity="0.1"/>
<stop offset="1" stop-color="white" stop-opacity="0"/>
</radialGradient>
</defs>
</svg>
