<svg width="205" height="65" viewBox="0 0 205 65" fill="none" xmlns="http://www.w3.org/2000/svg">
<path d="M83.8815 54.4872H78.7387L76.95 49.9789H67.9742L66.2174 54.4872H61.2344L70.0186 33.2163H75.0653L83.8815 54.4872ZM72.4461 38.6452L69.5394 46.0105H75.3528L72.4461 38.6452ZM100.524 44.6772H96.0197C95.7642 43.9787 95.3171 43.4178 94.6782 42.9945C94.0607 42.55 93.3259 42.3278 92.4741 42.3278C91.2391 42.3278 90.2489 42.7405 89.5035 43.566C88.7582 44.3703 88.3856 45.3755 88.3856 46.582C88.3856 47.7673 88.7582 48.7725 89.5035 49.598C90.2489 50.4023 91.2391 50.8044 92.4741 50.8044C93.3047 50.8044 94.0393 50.5928 94.6782 50.1694C95.3171 49.725 95.7642 49.1535 96.0197 48.455H100.524C100.183 50.3812 99.2779 51.9473 97.8085 53.1537C96.3604 54.3602 94.5717 54.9633 92.4422 54.9633C89.9295 54.9633 87.9064 54.1697 86.3732 52.5823C84.8399 50.9949 84.0734 48.9948 84.0734 46.582C84.0734 44.1692 84.8399 42.169 86.3732 40.5817C87.9064 38.9943 89.9295 38.2007 92.4422 38.2007C94.593 38.2007 96.3924 38.8039 97.8405 40.0103C99.3098 41.1955 100.204 42.7512 100.524 44.6772ZM114.821 40.7087V38.6769H119.101V54.4872H114.821V52.3918H114.661C114.15 53.1537 113.447 53.7675 112.553 54.2332C111.658 54.6988 110.647 54.9422 109.518 54.9633C107.346 54.9633 105.536 54.1908 104.088 52.6458C102.661 51.0795 101.948 49.0689 101.948 46.6138C101.948 44.1585 102.651 42.1373 104.056 40.5499C105.483 38.9625 107.314 38.1795 109.55 38.2007C110.658 38.2007 111.658 38.4334 112.553 38.899C113.447 39.3648 114.15 39.9679 114.661 40.7087H114.821ZM107.474 49.6933C108.283 50.4975 109.316 50.8997 110.572 50.8997C111.829 50.8997 112.851 50.4869 113.639 49.6615C114.427 48.8149 114.821 47.7884 114.821 46.582C114.821 45.3544 114.416 44.3279 113.607 43.5025C112.819 42.677 111.807 42.2643 110.572 42.2643C109.316 42.2643 108.283 42.677 107.474 43.5025C106.686 44.3068 106.292 45.3333 106.292 46.582C106.292 47.8307 106.686 48.8678 107.474 49.6933ZM134.348 40.7722V31.6289H138.628V54.4872H134.348V52.4235H134.22C133.709 53.1643 132.996 53.7675 132.081 54.2332C131.185 54.6988 130.185 54.9422 129.077 54.9633C126.841 54.9633 125.01 54.1802 123.583 52.614C122.178 51.0267 121.475 49.0054 121.475 46.5503C121.475 44.0739 122.189 42.0633 123.615 40.5182C125.063 38.952 126.874 38.1795 129.046 38.2007C130.153 38.2007 131.154 38.444 132.048 38.9308C132.963 39.3965 133.688 40.0103 134.22 40.7722H134.348ZM127.001 43.5025C126.214 44.3068 125.82 45.3333 125.82 46.582C125.82 47.8307 126.214 48.8678 127.001 49.6933C127.811 50.4975 128.843 50.8997 130.1 50.8997C131.335 50.8997 132.346 50.4869 133.135 49.6615C133.943 48.836 134.348 47.8095 134.348 46.582C134.348 45.3755 133.955 44.3597 133.166 43.5343C132.379 42.6877 131.356 42.2643 130.1 42.2643C128.843 42.2643 127.811 42.677 127.001 43.5025ZM149.182 38.2007C151.822 38.2007 153.909 39.1319 155.443 40.9944C156.976 42.8569 157.594 45.1957 157.296 48.0107H145.285C145.413 48.8572 145.817 49.5768 146.499 50.1694C147.202 50.7409 148.086 51.0478 149.15 51.0902C149.896 51.1324 150.587 51.0054 151.226 50.7092C151.886 50.3917 152.354 49.9789 152.632 49.471H157.136C156.624 51.2065 155.644 52.561 154.197 53.5347C152.749 54.4872 151.066 54.9633 149.15 54.9633C146.573 54.9633 144.55 54.159 143.081 52.5505C141.611 50.9208 140.877 48.9313 140.877 46.582C140.877 44.2115 141.654 42.222 143.208 40.6134C144.784 39.0049 146.775 38.2007 149.182 38.2007ZM151.546 42.7405C150.885 42.2749 150.087 42.042 149.15 42.042C148.213 42.042 147.393 42.2855 146.691 42.7723C146.009 43.2379 145.552 43.8729 145.316 44.6772H152.919C152.685 43.8517 152.227 43.2062 151.546 42.7405ZM178.141 38.2324C179.867 38.2324 181.305 38.8039 182.454 39.9468C183.604 41.0897 184.18 42.7512 184.18 44.9312V54.4872H179.867V45.5978C179.867 44.5184 179.612 43.7142 179.1 43.185C178.589 42.6559 177.919 42.3913 177.088 42.3913C176.257 42.3913 175.533 42.6982 174.916 43.312C174.319 43.9258 174.021 44.8464 174.021 46.074V54.4872H169.709V45.6295C169.709 44.5502 169.453 43.7459 168.943 43.2168C168.431 42.6877 167.772 42.423 166.962 42.423C166.046 42.4443 165.301 42.804 164.726 43.5025C164.173 44.2009 163.896 45.1217 163.896 46.2645V54.4872H159.583V38.6769H163.705V40.6769H163.832C164.918 39.0473 166.43 38.2324 168.368 38.2324C170.455 38.2324 171.956 39.0895 172.872 40.8039H172.999C174.255 39.0895 175.969 38.2324 178.141 38.2324ZM194.584 50.6774L198.482 38.6769H202.857L196.532 57.0587C196.107 58.265 195.457 59.1963 194.584 59.8524C193.711 60.5085 192.657 60.8367 191.422 60.8367H186.886V56.6459H191.294C191.721 56.6459 192.083 56.5507 192.381 56.3602L185.065 38.6769H189.793L194.584 50.6774Z" fill="#00B534"/>
<path fill-rule="evenodd" clip-rule="evenodd" d="M27.9494 59.5269C43.3855 59.5269 55.899 47.0898 55.899 31.7478C55.899 16.4059 43.3855 3.96875 27.9494 3.96875C12.5134 3.96875 0 16.4059 0 31.7478C0 47.0898 12.5134 59.5269 27.9494 59.5269ZM28.0653 47.1295C36.5487 47.1295 43.4259 40.2942 43.4259 31.8625C43.4259 23.4309 36.5487 16.5955 28.0653 16.5955C19.5818 16.5955 12.7046 23.4309 12.7046 31.8625C12.7046 40.2942 19.5818 47.1295 28.0653 47.1295Z" fill="#00B534"/>
<path d="M35.535 34.1298C40.6068 34.1298 44.7184 30.0433 44.7184 25.0024C44.7184 19.9615 40.6068 15.875 35.535 15.875C30.4631 15.875 26.3516 19.9615 26.3516 25.0024C26.3516 30.0433 30.4631 34.1298 35.535 34.1298Z" fill="#FFCC1B"/>
<path d="M72.6907 6.04297C74.6732 6.04297 76.3219 6.66628 77.6369 7.91289C78.9518 9.15951 79.6093 10.7178 79.6093 12.5877C79.6093 14.4777 78.9518 16.036 77.6369 17.2625C76.3219 18.469 74.6732 19.0721 72.6907 19.0721H66.0451V26.2502H63.1016V6.04297H72.6907ZM66.0451 16.2672H72.5996C73.7933 16.2672 74.7643 15.9255 75.5127 15.2419C76.2613 14.5581 76.6355 13.6735 76.6355 12.5877C76.6355 11.5221 76.2511 10.6474 75.4824 9.96378C74.7339 9.26004 73.773 8.90818 72.5996 8.90818H66.0451V16.2672ZM83.4601 26.2201V6.04297H91.623C94.5361 6.04297 96.9434 6.99804 98.845 8.90818C100.747 10.7982 101.698 13.1909 101.698 16.0862V16.1767C101.698 19.0721 100.747 21.4749 98.845 23.385C96.9434 25.2751 94.5361 26.2201 91.623 26.2201H83.4601ZM91.5925 8.90818H86.4035V23.3549H91.5925C93.6762 23.3549 95.3857 22.6914 96.7209 21.3644C98.0561 20.0171 98.7236 18.288 98.7236 16.1767V16.0862C98.7236 13.9751 98.0561 12.2559 96.7209 10.9289C95.3857 9.58176 93.6762 8.90818 91.5925 8.90818ZM115.423 6.04297C117.405 6.04297 119.054 6.66628 120.369 7.91289C121.684 9.15951 122.341 10.7178 122.341 12.5877C122.341 14.4777 121.684 16.036 120.369 17.2625C119.054 18.469 117.405 19.0721 115.423 19.0721H108.777V26.2502H105.834V6.04297H115.423ZM108.777 16.2672H115.332C116.525 16.2672 117.496 15.9255 118.245 15.2419C118.993 14.5581 119.368 13.6735 119.368 12.5877C119.368 11.5221 118.983 10.6474 118.214 9.96378C117.466 9.26004 116.505 8.90818 115.332 8.90818H108.777V16.2672Z" fill="black"/>
</svg>
