<svg width="33" height="35" viewBox="0 0 33 35" fill="none" xmlns="http://www.w3.org/2000/svg">
<path d="M21.5302 33.0347V2.97467C21.5302 2.42239 21.0825 1.97467 20.5302 1.97467H12.1773C11.625 1.97467 11.1773 2.42239 11.1773 2.97467V33.0347M21.5302 33.0347L21.5273 14.6907C21.5272 14.1383 21.9749 13.6905 22.5273 13.6905H30.88C31.4323 13.6905 31.88 14.1382 31.88 14.6905V32.0347C31.88 32.587 31.4323 33.0347 30.88 33.0347H21.5302ZM21.5302 33.0347H11.1773M11.1773 33.0347V23.7816C11.1773 23.2293 10.7296 22.7816 10.1773 22.7816H2.12001C1.56772 22.7816 1.12001 23.2293 1.12001 23.7816V32.0347C1.12001 32.587 1.56772 33.0347 2.12001 33.0347H11.1773Z" stroke="black" stroke-width="2" stroke-linecap="round" stroke-linejoin="round"/>
</svg>
