<svg width="245" height="78" viewBox="0 0 245 78" fill="none" xmlns="http://www.w3.org/2000/svg">
<path d="M100.247 65.3825H94.1005L91.9627 59.9726H81.2356L79.136 65.3825H73.1807L83.6788 39.8574H89.7103L100.247 65.3825ZM86.5801 46.3721L83.1062 55.2105H90.054L86.5801 46.3721ZM120.136 53.6105H114.753C114.448 52.7723 113.914 52.0992 113.15 51.5913C112.412 51.0579 111.534 50.7912 110.516 50.7912C109.04 50.7912 107.857 51.2865 106.966 52.2771C106.075 53.2422 105.63 54.4485 105.63 55.8963C105.63 57.3186 106.075 58.5249 106.966 59.5155C107.857 60.4806 109.04 60.9632 110.516 60.9632C111.509 60.9632 112.387 60.7092 113.15 60.2012C113.914 59.6679 114.448 58.9821 114.753 58.1439H120.136C119.729 60.4553 118.647 62.3346 116.891 63.7823C115.161 65.2301 113.023 65.9538 110.478 65.9538C107.475 65.9538 105.057 65.0015 103.225 63.0966C101.392 61.1918 100.476 58.7916 100.476 55.8963C100.476 53.0009 101.392 50.6007 103.225 48.6959C105.057 46.791 107.475 45.8387 110.478 45.8387C113.048 45.8387 115.199 46.5626 116.929 48.0102C118.685 49.4325 119.754 51.2993 120.136 53.6105ZM137.223 48.8483V46.4102H142.338V65.3825H137.223V62.868H137.032C136.421 63.7823 135.581 64.5189 134.513 65.0777C133.444 65.6364 132.235 65.9285 130.886 65.9538C128.29 65.9538 126.127 65.0268 124.396 63.1728C122.691 61.2933 121.838 58.8806 121.838 55.9344C121.838 52.9881 122.678 50.5626 124.358 48.6578C126.063 46.7529 128.252 45.8133 130.924 45.8387C132.247 45.8387 133.444 46.118 134.513 46.6767C135.581 47.2356 136.421 47.9594 137.032 48.8483H137.223ZM128.443 59.6298C129.41 60.5949 130.644 61.0775 132.146 61.0775C133.647 61.0775 134.869 60.5822 135.81 59.5917C136.752 58.5758 137.223 57.344 137.223 55.8963C137.223 54.4232 136.739 53.1914 135.772 52.2009C134.831 51.2103 133.622 50.715 132.146 50.715C130.644 50.715 129.41 51.2103 128.443 52.2009C127.501 53.166 127.03 54.3978 127.03 55.8963C127.03 57.3947 127.501 58.6392 128.443 59.6298ZM160.561 48.9245V37.9526H165.676V65.3825H160.561V62.9061H160.407C159.797 63.795 158.945 64.5189 157.851 65.0777C156.78 65.6364 155.585 65.9285 154.261 65.9538C151.589 65.9538 149.4 65.0141 147.695 63.1347C146.016 61.2299 145.176 58.8044 145.176 55.8582C145.176 52.8866 146.028 50.4738 147.734 48.6197C149.464 46.7403 151.628 45.8133 154.224 45.8387C155.546 45.8387 156.743 46.1307 157.811 46.7148C158.906 47.2737 159.771 48.0102 160.407 48.9245H160.561ZM151.78 52.2009C150.839 53.166 150.368 54.3978 150.368 55.8963C150.368 57.3947 150.839 58.6392 151.78 59.6298C152.748 60.5949 153.982 61.0775 155.483 61.0775C156.959 61.0775 158.168 60.5822 159.11 59.5917C160.077 58.6011 160.561 57.3693 160.561 55.8963C160.561 54.4485 160.09 53.2295 159.148 52.239C158.207 51.2231 156.985 50.715 155.483 50.715C153.982 50.715 152.748 51.2103 151.78 52.2009ZM178.289 45.8387C181.444 45.8387 183.938 46.9562 185.772 49.1912C187.604 51.4262 188.342 54.2327 187.986 57.6107H173.631C173.785 58.6265 174.267 59.49 175.082 60.2012C175.922 60.887 176.979 61.2552 178.25 61.3061C179.142 61.3568 179.968 61.2044 180.732 60.8489C181.521 60.4679 182.08 59.9726 182.412 59.3631H187.795C187.183 61.4457 186.012 63.0711 184.282 64.2395C182.552 65.3825 180.541 65.9538 178.25 65.9538C175.17 65.9538 172.753 64.9887 170.998 63.0585C169.241 61.1028 168.363 58.7154 168.363 55.8963C168.363 53.0517 169.292 50.6643 171.15 48.734C173.033 46.8038 175.412 45.8387 178.289 45.8387ZM181.114 51.2865C180.324 50.7278 179.37 50.4483 178.25 50.4483C177.13 50.4483 176.15 50.7405 175.312 51.3246C174.497 51.8834 173.95 52.6454 173.669 53.6105H182.755C182.475 52.6199 181.928 51.8453 181.114 51.2865ZM212.899 45.8768C214.961 45.8768 216.679 46.5626 218.053 47.934C219.427 49.3055 220.115 51.2993 220.115 53.9153V65.3825H214.961V54.7152C214.961 53.42 214.656 52.4549 214.044 51.8199C213.434 51.185 212.633 50.8674 211.639 50.8674C210.647 50.8674 209.782 51.2357 209.044 51.9723C208.331 52.7088 207.975 53.8136 207.975 55.2867V65.3825H202.821V54.7533C202.821 53.4581 202.516 52.493 201.905 51.858C201.294 51.2231 200.506 50.9055 199.538 50.9055C198.444 50.931 197.553 51.3627 196.866 52.2009C196.204 53.039 195.874 54.1439 195.874 55.5153V65.3825H190.72V46.4102H195.645V48.8102H195.797C197.096 46.8546 198.902 45.8768 201.219 45.8768C203.712 45.8768 205.507 46.9053 206.601 48.9626H206.753C208.254 46.9053 210.303 45.8768 212.899 45.8768ZM232.55 60.8108L237.208 46.4102H242.437L234.878 68.4683C234.37 69.9159 233.593 71.0334 232.55 71.8208C231.507 72.6081 230.247 73.0019 228.771 73.0019H223.35V67.973H228.618C229.128 67.973 229.56 67.8587 229.917 67.6301L221.173 46.4102H226.823L232.55 60.8108Z" fill="#00B533"/>
<path fill-rule="evenodd" clip-rule="evenodd" d="M33.403 71.432C51.851 71.432 66.8061 56.5074 66.8061 38.097C66.8061 19.6868 51.851 4.76221 33.403 4.76221C14.955 4.76221 0 19.6868 0 38.097C0 56.5074 14.955 71.432 33.403 71.432ZM33.5414 56.5551C43.6802 56.5551 51.8993 48.3528 51.8993 38.2347C51.8993 28.1168 43.6802 19.9143 33.5414 19.9143C23.4026 19.9143 15.1835 28.1168 15.1835 38.2347C15.1835 48.3528 23.4026 56.5551 33.5414 56.5551Z" fill="#00B533"/>
<path d="M42.4689 40.9542C48.5304 40.9542 53.4442 36.0505 53.4442 30.0013C53.4442 23.9522 48.5304 19.0485 42.4689 19.0485C36.4075 19.0485 31.4937 23.9522 31.4937 30.0013C31.4937 36.0505 36.4075 40.9542 42.4689 40.9542Z" fill="#FFCC1B"/>
<path d="M86.8713 7.25128C89.2407 7.25128 91.2111 7.99926 92.7827 9.49519C94.3541 10.9911 95.1399 12.8611 95.1399 15.105C95.1399 17.373 94.3541 19.2429 92.7827 20.7147C91.2111 22.1625 89.2407 22.8862 86.8713 22.8862H78.9291V31.5H75.4111V7.25128H86.8713ZM78.9291 19.5204H86.7624C88.189 19.5204 89.3495 19.1103 90.244 18.2899C91.1386 17.4694 91.5858 16.4079 91.5858 15.105C91.5858 13.8262 91.1265 12.7766 90.2078 11.9563C89.3132 11.1118 88.1648 10.6895 86.7624 10.6895H78.9291V19.5204ZM99.742 31.4638V7.25128H109.498C112.979 7.25128 115.856 8.39737 118.129 10.6895C120.402 12.9576 121.538 15.8287 121.538 19.3032V19.4118C121.538 22.8862 120.402 25.7695 118.129 28.0617C115.856 30.3298 112.979 31.4638 109.498 31.4638H99.742ZM109.461 10.6895H103.26V28.0255H109.461C111.952 28.0255 113.995 27.2293 115.59 25.6369C117.186 24.0202 117.984 21.9453 117.984 19.4118V19.3032C117.984 16.7698 117.186 14.7069 115.59 13.1144C113.995 11.4978 111.952 10.6895 109.461 10.6895ZM137.941 7.25128C140.311 7.25128 142.281 7.99926 143.853 9.49519C145.424 10.9911 146.21 12.8611 146.21 15.105C146.21 17.373 145.424 19.2429 143.853 20.7147C142.281 22.1625 140.311 22.8862 137.941 22.8862H129.999V31.5H126.481V7.25128H137.941ZM129.999 19.5204H137.832C139.259 19.5204 140.42 19.1103 141.314 18.2899C142.209 17.4694 142.656 16.4079 142.656 15.105C142.656 13.8262 142.197 12.7766 141.278 11.9563C140.383 11.1118 139.235 10.6895 137.832 10.6895H129.999V19.5204Z" fill="black"/>
</svg>
