<svg width="35" height="35" viewBox="0 0 35 35" fill="none" xmlns="http://www.w3.org/2000/svg">
<path fill-rule="evenodd" clip-rule="evenodd" d="M33.03 17.5C33.03 26.077 26.077 33.03 17.5 33.03C8.92299 33.03 1.96997 26.077 1.96997 17.5C1.96997 8.92302 8.92299 1.97 17.5 1.97C26.077 1.97 33.03 8.92302 33.03 17.5ZM23.063 12.2068C23.063 9.24394 20.5618 6.82313 17.5004 6.82313C14.4391 6.82313 11.9379 9.24394 11.9379 12.2068C11.9379 15.1696 14.4391 17.5905 17.5004 17.5905C20.5617 17.5905 23.063 15.1696 23.063 12.2068Z" stroke="black" stroke-width="2"/>
<path d="M24.5948 30.3994V26.8262C24.5948 24.6171 22.804 22.8262 20.5948 22.8262H14.3951C12.186 22.8262 10.3951 24.6171 10.3951 26.8262V30.3994" stroke="black" stroke-width="2" stroke-linecap="round"/>
</svg>
